<svg xmlns="http://www.w3.org/2000/svg" version="1.1" xmlns:xlink="http://www.w3.org/1999/xlink" xmlns:svgjs="http://svgjs.com/svgjs"><defs id="SvgjsDefs1001"><pattern id="SvgjsPattern1013" x="0" y="0" width="50" height="50" patternUnits="userSpaceOnUse"><rect id="SvgjsRect1014" width="49" height="49" fill="#000000"></rect><rect id="SvgjsRect1015" width="46" height="46" fill="#eeeeee" x="2" y="2"></rect></pattern><marker id="SvgjsMarker1018" markerWidth="10" markerHeight="10" refX="5" refY="5" viewBox="0 0 10 10" orient="auto"><circle id="SvgjsCircle1019" r="3" cx="5" cy="5" fill="#0000ff"></circle></marker><marker id="SvgjsMarker1020" markerWidth="10" markerHeight="10" refX="5" refY="5" viewBox="0 0 10 10" orient="auto"><path id="SvgjsPath1021" d="M0 0 L10 5 L0 10 Z" fill="#0000ff"></path></marker><pattern id="SvgjsPattern1028" x="0" y="0" width="200" height="200" patternUnits="userSpaceOnUse"><rect id="SvgjsRect1029" width="199" height="199" fill="#000000"></rect><rect id="SvgjsRect1030" width="196" height="196" fill="#eeeeee" x="2" y="2"></rect></pattern><pattern id="SvgjsPattern1036" x="0" y="0" width="50" height="50" patternUnits="userSpaceOnUse"><rect id="SvgjsRect1037" width="49" height="49" fill="#000000"></rect><rect id="SvgjsRect1038" width="46" height="46" fill="#eeeeee" x="2" y="2"></rect></pattern><marker id="SvgjsMarker1041" markerWidth="10" markerHeight="10" refX="5" refY="5" viewBox="0 0 10 10" orient="auto"><circle id="SvgjsCircle1042" r="3" cx="5" cy="5" fill="#0000ff"></circle></marker><marker id="SvgjsMarker1043" markerWidth="10" markerHeight="10" refX="5" refY="5" viewBox="0 0 10 10" orient="auto"><path id="SvgjsPath1044" d="M0 0 L10 5 L0 10 Z" fill="#0000ff"></path></marker></defs><svg id="SvgjsSvg1002" width="2" height="0" focusable="false" style="overflow:hidden;top:-100%;left:-100%;position:absolute;opacity:0"><polyline id="SvgjsPolyline1003" points="0,0"></polyline><path id="SvgjsPath1004" d="M52 34L52 38L60 32L52 26L52 30L4 30L4 34Z "></path></svg><text id="SvgjsText1006" font-family="Helvetica, Arial, sans-serif" x="100" y="46.3015625" svgjs:data="{&quot;leading&quot;:&quot;1.3&quot;}"><tspan id="SvgjsTspan1007" dy="20.8" x="100" svgjs:data="{&quot;newLined&quot;:true}">grid of image</tspan><tspan id="SvgjsTspan1008" dy="20.8" x="100" svgjs:data="{&quot;newLined&quot;:true}">step 1. calc xxx</tspan><tspan id="SvgjsTspan1009" dy="20.8" x="100" svgjs:data="{&quot;newLined&quot;:true}">step 2. calc yyy</tspan><tspan id="SvgjsTspan1010" dy="20.8" x="100" svgjs:data="{&quot;newLined&quot;:true}">step3. calc zzz</tspan></text><text id="SvgjsText1011" font-family="Helvetica" font-size="32" text-anchor="middle" family="Helvetica" size="32" anchor="middle" x="150" y="-8.796875" svgjs:data="{&quot;leading&quot;:&quot;1.5em&quot;}"><tspan id="SvgjsTspan1012" dy="48" x="150" svgjs:data="{&quot;newLined&quot;:true}">pt.A (prev impl)</tspan></text><rect id="SvgjsRect1016" width="200" height="200" fill="url(#SvgjsPattern1013)" x="0" y="0" transform="matrix(1,0,0,1,50,150)"></rect><polyline id="SvgjsPolyline1017" points="0,0 50,0 100,0 150,0 0,50 50,50 100,50 150,50 0,100 50,100 100,100 150,100 0,150 50,150 100,150 150,150" fill="none" stroke-linecap="rect" stroke="#0000ff" stroke-width="2" marker-start="url(#SvgjsMarker1018)" marker-end="url(#SvgjsMarker1020)" transform="matrix(1,0,0,1,75,175)"></polyline><text id="SvgjsText1022" font-family="Helvetica" font-size="32" text-anchor="middle" family="Helvetica" size="32" anchor="middle" x="150" y="361.203125" svgjs:data="{&quot;leading&quot;:&quot;1.5em&quot;}"><tspan id="SvgjsTspan1023" dy="48" x="150" svgjs:data="{&quot;newLined&quot;:true}">pt.B (new impl)</tspan></text><text id="SvgjsText1024" font-family="Helvetica, Arial, sans-serif" x="100" y="421.3015625" svgjs:data="{&quot;leading&quot;:&quot;1.3&quot;}"><tspan id="SvgjsTspan1025" dy="20.8" x="100" svgjs:data="{&quot;newLined&quot;:true}">whole image</tspan><tspan id="SvgjsTspan1026" dy="20.8" x="100" svgjs:data="{&quot;newLined&quot;:true}">step 1. calc xxx</tspan><tspan id="SvgjsTspan1027" dy="20.8" x="100" svgjs:data="{&quot;newLined&quot;:true}">step 2. calc yyy</tspan></text><rect id="SvgjsRect1031" width="200" height="200" fill="url(#SvgjsPattern1028)" x="0" y="0" transform="matrix(1,0,0,1,50,500)"></rect><path id="SvgjsPath1032" d="M348 608L348 612L356 606L348 600L348 604L300 604L300 608Z " fill="none" stroke="#333333" stroke-width="8"></path><text id="SvgjsText1033" font-family="Helvetica, Arial, sans-serif" x="450" y="421.3015625" svgjs:data="{&quot;leading&quot;:&quot;1.3&quot;}"><tspan id="SvgjsTspan1034" dy="20.8" x="450" svgjs:data="{&quot;newLined&quot;:true}">grid of image</tspan><tspan id="SvgjsTspan1035" dy="20.8" x="450" svgjs:data="{&quot;newLined&quot;:true}">step 3. calc zzz</tspan></text><rect id="SvgjsRect1039" width="200" height="200" fill="url(#SvgjsPattern1036)" x="0" y="0" transform="matrix(1,0,0,1,400,500)"></rect><polyline id="SvgjsPolyline1040" points="0,0 50,0 100,0 150,0 0,50 50,50 100,50 150,50 0,100 50,100 100,100 150,100 0,150 50,150 100,150 150,150" fill="none" stroke-linecap="rect" stroke="#0000ff" stroke-width="2" marker-start="url(#SvgjsMarker1041)" marker-end="url(#SvgjsMarker1043)" transform="matrix(1,0,0,1,425,525)"></polyline></svg>
